Coordinates
version=1
nRows=14
nColumns=24
inDegrees=yes

Units are S.I. units (second, meters, Newtons, ...)
Angles are in degrees.

endheader
time	pelvis_tilt	pelvis_list	pelvis_rotation	pelvis_tx	pelvis_ty	pelvis_tz	hip_flexion_r	hip_adduction_r	hip_rotation_r	knee_angle_r	ankle_angle_r	subtalar_angle_r	mtp_angle_r	hip_flexion_l	hip_adduction_l	hip_rotation_l	knee_angle_l	ankle_angle_l	subtalar_angle_l	mtp_angle_l	lumbar_extension	lumbar_bending	lumbar_rotation
      4.73000000	    -14.88441246	     -8.42676593	      5.65969613	      2.91735228	     -0.02239908	     -0.44510317	     31.25944838	      7.99696698	     -6.95422110	    -18.52953515	     -6.39179346	      0.60432517	     10.15224858	     15.12863229	    -14.44719638	    -11.84143844	    -52.40048263	    -31.40803240	     18.93234567	     30.25988584	     15.09713764	      8.72011877	     -5.28718521
      4.73500000	    -14.78221528	     -8.51515165	      5.70321394	      2.92320300	     -0.02158982	     -0.44481172	     30.62775366	      8.16935294	     -6.99325475	    -18.20958413	     -6.16942266	      0.68573120	     10.37600726	     15.92026662	    -14.64461517	    -11.64764568	    -53.72492610	    -30.55816893	     17.19572006	     29.54167209	     14.99044130	      8.80042450	     -5.21796215
      4.74000000	    -14.67896406	     -8.56459551	      5.74185942	      2.92916719	     -0.02071066	     -0.44451192	     29.96296628	      8.31252363	     -7.01561554	    -17.85630408	     -5.93367968	      0.76188146	     10.54769815	     16.67956559	    -14.78888728	    -11.48615989	    -54.94520686	    -29.69036434	     15.48117649	     28.79638323	     14.89906776	      8.83854244	     -5.08685283
      4.74500000	    -14.56880514	     -8.57243261	      5.75964372	      2.93502587	     -0.01975651	     -0.44420976	     29.28909638	      8.42310532	     -6.98957365	    -17.49784388	     -5.75406113	      0.86423798	     10.68253630	     17.42633379	    -14.88028497	    -11.35423953	    -56.09716248	    -28.84082834	     13.84133699	     28.00639445	     14.77716901	      8.84804942	     -4.90835594
      4.75000000	    -14.46091643	     -8.53512820	      5.74631046	      2.94090891	     -0.01879346	     -0.44383771	     28.60950803	      8.50789973	     -6.91971634	    -17.14428513	     -5.54911540	      0.97369281	     10.81244905	     18.14562271	    -14.93192212	    -11.28211006	    -57.16772027	    -27.99493128	     12.35140657	     27.16706867	     14.65483850	      8.80746459	     -4.70863571
      4.75500000	    -14.36947771	     -8.47295916	      5.68206047	      2.94687180	     -0.01784613	     -0.44342279	     27.93340369	      8.58440449	     -6.82152063	    -16.78404838	     -5.33269216	      1.15117683	     10.99453125	     18.84777769	    -14.97378795	    -11.28056427	    -58.18285945	    -27.06866583	     11.16309091	     26.09798655	     14.56088796	      8.75960138	     -4.45692635
      4.76000000	    -14.24636599	     -8.36669334	      5.64224769	      2.95276156	     -0.01681284	     -0.44296791	     27.21096983	      8.62997270	     -6.62198293	    -16.40366797	     -5.14730796	      1.15491722	     11.03196846	     19.49956955	    -14.95661020	    -11.27209965	    -59.04909555	    -26.41995434	      9.93100909	     25.51499734	     14.41903803	      8.65007108	     -4.22869345
      4.76500000	    -14.13092001	     -8.23747372	      5.56016475	      2.95864847	     -0.01578017	     -0.44246845	     26.49197954	      8.66620737	     -6.39827364	    -16.02339200	     -4.97053740	      1.19708009	     11.04385651	     20.12781823	    -14.92178646	    -11.30374201	    -59.83438859	    -25.80008782	      8.92331970	     24.94289460	     14.27957742	      8.52852100	     -3.92976235
      4.77000000	    -14.01551691	     -8.09324757	      5.43810490	      2.96453062	     -0.01474500	     -0.44193317	     25.76652713	      8.70145779	     -6.14907875	    -15.63519346	     -4.81531366	      1.24215413	     11.01322972	     20.72324534	    -14.88452202	    -11.38289792	    -60.54428528	    -25.16721724	      8.17804550	     24.34759771	     14.13608426	      8.40543012	     -3.57249827
      4.77500000	    -13.91461063	     -7.93052462	      5.33331017	      2.97037627	     -0.01372999	     -0.44139897	     25.05208655	      8.70986793	     -5.89067438	    -15.23640311	     -4.67432894	      1.22396616	     10.97540563	     21.32337029	    -14.80842483	    -11.43982691	    -61.14012663	    -24.72403321	      7.46130619	     24.15426078	     14.01014062	      8.25016968	     -3.24877717
      4.78000000	    -13.79773996	     -7.72087304	      5.17867290	      2.97622271	     -0.01269951	     -0.44080805	     24.30728402	      8.69377948	     -5.52280646	    -14.83186218	     -4.51541410	      1.19985776	     10.90136495	     21.85554764	    -14.69797816	    -11.55671892	    -61.64854975	    -24.27124286	      7.01639942	     23.95110410	     13.85825395	      8.06251663	     -2.87233161
      4.78500000	    -13.71266715	     -7.52600056	      5.02177280	      2.98209040	     -0.01172968	     -0.44022908	     23.59255626	      8.67983869	     -5.20303039	    -14.41400174	     -4.37454510	      1.19929759	     10.85671629	     22.41009686	    -14.59429366	    -11.67219607	    -62.07522431	    -23.88855425	      6.65076679	     23.95342749	     13.75290237	      7.88646117	     -2.52155238
      4.79000000	    -13.61428058	     -7.27557727	      4.84316703	      2.98789581	     -0.01073959	     -0.43960706	     22.86233896	      8.61892194	     -4.82306820	    -14.00032159	     -4.24201115	      1.14669345	     10.79226555	     22.91133553	    -14.42845040	    -11.80510099	    -62.40528454	    -23.51185558	      6.51205102	     24.06425955	     13.61771502	      7.65783926	     -2.11620277
      4.79500000	    -13.52125972	     -7.03620810	      4.65543444	      2.99368900	     -0.00978911	     -0.43898434	     22.13342914	      8.56455924	     -4.45242011	    -13.57125648	     -4.12019316	      1.10161133	     10.72868484	     23.40519780	    -14.27041988	    -11.93580268	    -62.66350206	    -23.14383614	      6.51619475	     24.29139471	     13.49125539	      7.44134988	     -1.72416521
